<?xml version="1.0" encoding="iso-8859-1"?>
<!-- Generator: Adobe Illustrator 19.0.0, SVG Export Plug-In . SVG Version: 6.00 Build 0)  -->
<svg version="1.1" id="Layer_1" xmlns="http://www.w3.org/2000/svg" xmlns:xlink="http://www.w3.org/1999/xlink" x="0px" y="0px"
	 viewBox="0 0 488.369 488.369" style="enable-background:new 0 0 488.369 488.369;" xml:space="preserve">
<path style="fill:#B2D1C7;" d="M480.721,408.275c0,1.843-1.505,3.34-3.348,3.34H10.996c-1.843,0-3.356-1.489-3.356-3.34V209.674
	c0-1.851,1.504-3.348,3.356-3.348h466.377c1.835,0,3.348,1.489,3.348,3.348V408.275z"/>
<path style="fill:#9FC1B5;" d="M7.648,209.674c0-1.851,1.504-3.348,3.356-3.348h466.377c1.835,0,3.348,1.489,3.348,3.348v198.601
	c0,1.843-1.505,3.34-3.348,3.34"/>
<g>
	<path style="fill:#86B2A2;" d="M477.373,419.279H10.996C4.931,419.279,0,414.34,0,408.283V209.674
		c0-6.073,4.939-10.996,10.996-10.996h466.377c6.065,0,10.996,4.931,10.996,10.996v198.601
		C488.369,414.34,483.438,419.279,477.373,419.279z M15.305,403.966h457.752V213.975H15.305V403.966z"/>
	<path style="fill:#86B2A2;" d="M100.982,296.509c0,1.788-1.434,3.214-3.198,3.214H46.97c-1.788,0-3.214-1.434-3.214-3.214v-50.814
		c0-1.78,1.434-3.206,3.214-3.206h50.814c1.772,0,3.198,1.434,3.198,3.206V296.509z"/>
	<path style="fill:#86B2A2;" d="M223.074,322.133c0,1.843-1.489,3.34-3.34,3.34H47.096c-1.843,0-3.34-1.489-3.34-3.34l0,0
		c0-1.843,1.489-3.34,3.34-3.34h172.646C221.586,318.801,223.074,320.289,223.074,322.133L223.074,322.133z"/>
	<path style="fill:#86B2A2;" d="M223.074,344.078c0,1.843-1.489,3.34-3.34,3.34H47.096c-1.843,0-3.34-1.489-3.34-3.34l0,0
		c0-1.843,1.489-3.34,3.34-3.34h172.646C221.586,340.738,223.074,342.227,223.074,344.078L223.074,344.078z"/>
	<path style="fill:#86B2A2;" d="M223.074,366.015c0,1.843-1.489,3.34-3.34,3.34H47.096c-1.843,0-3.34-1.489-3.34-3.34l0,0
		c0-1.843,1.489-3.34,3.34-3.34h172.646C221.586,362.675,223.074,364.164,223.074,366.015L223.074,366.015z"/>
	<path style="fill:#86B2A2;" d="M255.52,383.368c0,1.757-1.434,3.174-3.182,3.174l0,0c-1.757,0-3.167-1.426-3.167-3.174V234.557
		c0-1.741,1.418-3.167,3.167-3.167l0,0c1.757,0,3.182,1.434,3.182,3.167V383.368z"/>
</g>
<path style="fill:#EFBE25;" d="M456.326,111.677c-2.907,2.899-7.633,2.899-10.539,0l0,0c-2.907-2.907-2.907-7.633,0-10.539
	l29.877-29.861c2.907-2.914,7.633-2.914,10.539,0l0,0c2.883,2.914,2.891,7.625,0,10.539L456.326,111.677z"/>
<path style="fill:#D8A107;" d="M486.203,71.276L486.203,71.276c2.883,2.914,2.891,7.625,0,10.539l-29.877,29.861
	c-2.907,2.899-7.633,2.899-10.539,0l0,0"/>
<ellipse transform="matrix(0.7072 -0.707 0.707 0.7072 -58.8856 302.0741)" style="fill:#255160;" cx="335.266" cy="222.133" rx="186.287" ry="25.663"/>
<path style="fill:#12353D;" d="M466.999,90.457c10.027,10.027-40.834,77.123-113.569,149.866
	c-72.751,72.751-139.847,123.597-149.874,113.569"/>
<path style="fill:#EFBE25;" d="M227.367,305.087c-19.188,25.71-28.664,43.953-23.812,48.798c4.852,4.844,23.111-4.616,48.798-23.812
	L227.367,305.087z"/>
<path style="fill:#D6A312;" d="M207.707,354.995c0.677-0.032,1.26,0.032,2.016-0.11c0.906-0.181,2.001-0.551,3.048-0.89
	c0.599-0.181,1.111-0.291,1.741-0.52c1.355-0.504,2.907-1.229,4.474-1.969c0.449-0.213,0.843-0.354,1.308-0.599
	c1.827-0.906,3.812-2.001,5.892-3.167c0.276-0.181,0.551-0.307,0.859-0.488c2.245-1.323,4.663-2.828,7.199-4.458
	c0.142-0.095,0.26-0.165,0.402-0.244c2.647-1.741,5.443-3.631,8.357-5.664c0.047-0.032,0.063-0.047,0.095-0.079
	c2.954-2.095,6.065-4.324,9.263-6.711v-0.016l-12.493-12.493l-36.305,36.305c0.614,0.614,1.449,0.985,2.473,1.15
	C206.525,355.121,207.171,355.011,207.707,354.995z"/>
<path style="fill:#BC8808;" d="M204.965,356.019c-1.583,1.56-3.647,2.072-4.616,1.087s-0.48-3.033,1.111-4.6
	c1.552-1.583,3.616-2.079,4.6-1.111C207.045,352.364,206.541,354.428,204.965,356.019z"/>
<path style="fill:#12353D;" d="M347.12,258.613c-1.938-1.938-1.938-5.089,0-7.042c1.953-1.93,5.089-1.93,7.034,0
	c1.922,1.946,5.089,1.946,7.034,0l92.932-92.932c1.938-1.93,1.938-5.088,0-7.034l-16.384-16.376
	c-1.938-1.938,5.215-12.249,7.152-14.186c1.938-1.946,5.089-1.938,7.034,0l16.384,16.384c5.813,5.813,5.813,15.265,0.016,21.079
	L368.215,258.613C362.386,264.426,352.941,264.426,347.12,258.613z"/>
<g>
</g>
<g>
</g>
<g>
</g>
<g>
</g>
<g>
</g>
<g>
</g>
<g>
</g>
<g>
</g>
<g>
</g>
<g>
</g>
<g>
</g>
<g>
</g>
<g>
</g>
<g>
</g>
<g>
</g>
</svg>
