<svg id="Capa_1" enable-background="new 0 0 497 497" height="512" viewBox="0 0 497 497" width="512" xmlns="http://www.w3.org/2000/svg"><g><path d="m437 458.5h-377c-33.137 0-60-26.863-60-60v-300c0-33.137 26.863-60 60-60h377c33.137 0 60 26.863 60 60v300c0 33.137-26.863 60-60 60z" fill="#ffeebc"/><path d="m467 248.5v75l-60 45v-165z" fill="#ff6737"/><path d="m248.5 398.5v-180h188.5v105z" fill="#ff8937"/><path d="m467 173.5v75h-30l-45-120z" fill="#ff8937"/><path d="m437 173.5v75h-188.5v-150z" fill="#ffab37"/><path d="m248.5 398.51c-.18-.01-218.5-75.01-218.5-75.01v-75l218.5-60z" fill="#ffab37"/><path d="m248.5 98.5v150h-218.5v-75z" fill="#ff8937"/><path d="m437 323.5-30 105h30c16.54 0 30-13.46 30-30v-75z" fill="#ffab37"/><path d="m437 68.5h-30l30 105h30v-75c0-16.54-13.46-30-30-30z" fill="#ffab37"/><path d="m30 323.5v75c0 16.54 13.46 30 30 30h121l67.5-32.85 67.5 32.85h91c16.54 0 30-13.46 30-30v-75z" fill="#ffcd37"/><path d="m407 68.5h-347c-16.54 0-30 13.46-30 30v75h407v-75c0-16.54-13.46-30-30-30z" fill="#ffcd37"/><path d="m302.93 132.68c8.06-5.76 13.07-14.85 13.07-24.76v-39.42h-135v39.42c0 9.91 5.01 19 13.07 24.76 5.91 4.23 9.7 11.25 9.42 19.14-.43 12.01-10.52 21.4-22.49 21.67v150.02c11.97.27 22.06 9.66 22.49 21.67.28 7.89-3.51 14.91-9.42 19.14-8.06 5.76-13.07 14.85-13.07 24.76v39.42h135v-39.42c0-9.91-5.01-19-13.07-24.76-5.91-4.23-9.7-11.25-9.42-19.14.43-12.01 10.52-21.4 22.49-21.67v-150.02c-11.97-.27-22.06-9.66-22.49-21.67-.28-7.89 3.51-14.91 9.42-19.14z" fill="#ffdf7d"/></g></svg>