<svg xmlns="http://www.w3.org/2000/svg" width="24" height="23" viewBox="0 0 24 23">
    <g fill="#156530" fill-rule="nonzero">
        <path d="M7.761 18.893A.248.248 0 0 0 8 18.644v-2.341a.25.25 0 0 0-.261-.25c-.4.018-.8.027-1.2.027a18.6 18.6 0 0 1-6.2-.9.25.25 0 0 0-.339.238v2.153c0 .747 2.927 1.347 6.539 1.347.418 0 .825-.008 1.222-.025zM6.539 7.08c2.19.112 4.376-.26 6.406-1.087a.249.249 0 0 0 .133-.221V3.418a.25.25 0 0 0-.341-.233 18.6 18.6 0 0 1-6.2.9 18.6 18.6 0 0 1-6.2-.9.25.25 0 0 0-.337.233v2.355c0 .092.051.177.133.22A14.944 14.944 0 0 0 6.539 7.08zM6.539 3.08c2.19.112 4.376-.26 6.406-1.087a.249.249 0 0 0 .133-.221v-.421C13.078.606 10.151 0 6.539 0 2.927 0 0 .606 0 1.351v.422c0 .092.051.177.133.22A14.944 14.944 0 0 0 6.539 3.08zM6.539 15.08c.427 0 .834-.011 1.223-.029a.25.25 0 0 0 .238-.25v-1.532c-.01-.302.04-.602.145-.885a.248.248 0 0 0-.03-.237.252.252 0 0 0-.216-.1c-.453.024-.908.037-1.36.037a18.6 18.6 0 0 1-6.2-.9.25.25 0 0 0-.339.234v2.359c0 .092.051.177.133.22a14.944 14.944 0 0 0 6.406 1.083zM6.539 11.08a21 21 0 0 0 6.4-1.087.25.25 0 0 0 .134-.221V7.418a.25.25 0 0 0-.341-.233 18.6 18.6 0 0 1-6.2.9 18.6 18.6 0 0 1-6.2-.9.25.25 0 0 0-.332.233v2.359c0 .092.051.177.133.22a14.944 14.944 0 0 0 6.406 1.083zM10.339 15.099a.25.25 0 0 0-.341.233v2.358c0 .093.051.178.133.221 2.03.828 4.218 1.2 6.408 1.087 2.19.112 4.376-.26 6.406-1.087a.25.25 0 0 0 .133-.221v-2.358a.25.25 0 0 0-.341-.233 18.6 18.6 0 0 1-6.2.9 18.6 18.6 0 0 1-6.198-.9zM16.539 19.998a18.6 18.6 0 0 1-6.2-.9.25.25 0 0 0-.341.233v2.153c0 .747 2.927 1.351 6.539 1.351 3.612 0 6.539-.6 6.539-1.351v-2.152a.25.25 0 0 0-.341-.233 18.6 18.6 0 0 1-6.196.899zM10 13.269v.421c0 .093.051.178.133.221a14.944 14.944 0 0 0 6.406 1.087c2.19.112 4.376-.26 6.406-1.087a.249.249 0 0 0 .133-.221v-.421c0-.745-2.927-1.351-6.539-1.351-3.612 0-6.539.606-6.539 1.351z"/>
    </g>
</svg>
